<mxfile host="app.diagrams.net" modified="2023-12-20T09:49:51.379Z" agent="Mozilla/5.0 (Windows NT 10.0; Win64; x64) AppleWebKit/537.36 (KHTML, like Gecko) Chrome/120.0.0.0 Safari/537.36" version="22.1.11" etag="Vqlz8my5QFUIjFHLPHni" type="github">
  <diagram name="Page-1" id="sum3KPvAP9c18_npDY0O">
    <mxGraphModel>
      <root>
        <mxCell id="0" />
        <mxCell id="1" parent="0" />
      </root>
    </mxGraphModel>
  </diagram>
</mxfile>
